<svg data-name="Layer 1" viewBox="0 0 676.416 606.151"><path fill="#f2f2f2" d="M471.375 601.375c-8.993-7.599-14.455-19.603-13.023-31.288s10.305-22.429 21.814-24.91 24.627 4.388 28.123 15.63c1.924-21.675 4.14-44.257 15.664-62.715 10.434-16.713 28.507-28.672 48.093-30.812s40.208 5.941 52.424 21.4 15.206 37.935 6.65 55.683c-6.302 13.075-17.913 22.805-30.079 30.721a194.13 194.13 0 01-132.772 29.047"/><path fill="#fff" d="M605.1 473.67a317.625 317.625 0 00-44.263 43.953 318.55 318.55 0 00-49.856 83.314c-.898 2.2 2.675 3.158 3.562.983a316.758 316.758 0 0193.17-125.638c1.844-1.502-.783-4.102-2.612-2.613z"/><path fill="#e6e6e6" d="M332.99 102H17.01a174.069 174.069 0 01315.98 0z"/><path fill="#6c63ff" d="M315.64 254.23l13.26-6.484a6 6 0 018.026 2.755l50.794 103.881a13.38 13.38 0 01-6.143 17.897 13.38 13.38 0 01-17.897-6.143l-50.794-103.88a6 6 0 012.755-8.027z"/><path fill="#2f2e41" d="M366.329 282.027c.494-3.39-2.822-6.372-6.218-6.82s-6.744.901-9.904 2.224c-5.614 2.351-11.318 4.756-16.006 8.638s-8.293 9.529-8.256 15.615c.035 5.792 3.256 11.022 6.37 15.906l29.214 45.81c3.09 4.847 6.586 10.021 12.032 11.86a17.218 17.218 0 0011.044-.465 26.666 26.666 0 0017.325-26.428c-1-13.12-11.415-23.184-19.212-33.784a97.032 97.032 0 01-16.234-35.147"/><path fill="#6c63ff" d="M284.026 529.199a6.473 6.473 0 01-4.263-1.594l-11.133-9.69a6.498 6.498 0 01-.635-9.17l80.765-92.788a6.506 6.506 0 019.17-.635l11.133 9.69a6.508 6.508 0 01.634 9.17l-80.764 92.787a6.487 6.487 0 01-4.907 2.23z"/><path fill="#6c63ff" d="M272.484 448.278a6.509 6.509 0 01-5.961-3.887l-5.933-13.515a6.507 6.507 0 013.338-8.564l112.639-49.448a6.51 6.51 0 018.565 3.339l5.933 13.514a6.508 6.508 0 01-3.34 8.565L275.089 447.73a6.464 6.464 0 01-2.604.548z"/><path fill="#6c63ff" d="M262.187 495.71l14.741.732a6 6 0 006.29-5.694l2.944-60.573a6 6 0 00-5.694-6.29l-14.742-.734a6 6 0 00-6.29 5.695l-2.944 60.573a6 6 0 005.695 6.29z"/><circle cx="469.925" cy="274.991" r="51" fill="#6c63ff"/><path fill="#2f2e41" d="M450.88 363.227l.09-.42a6 6 0 00-1.832-5.684l-19.472-17.714 2.285-2.625a6 6 0 00-.587-8.465l-12.068-10.505a6 6 0 00-8.465.587l-1.882 2.162-17.652-16.058a6 6 0 00-5.878-1.272 140.273 140.273 0 00-94.19 104.385l-.09.42a6 6 0 001.832 5.684l57.84 52.617a6 6 0 005.878 1.272 140.272 140.272 0 0094.191-104.384z"/><path fill="#6c63ff" d="M365.892 478.78l-14.018-4.62a6 6 0 01-3.82-7.576l36.19-109.825a13.38 13.38 0 0116.896-8.52 13.38 13.38 0 018.52 16.896l-36.192 109.824a6 6 0 01-7.576 3.821z"/><path fill="#2f2e41" d="M355.605 418.203c-2.772 2.013-2.592 6.468-.543 9.214s5.353 4.199 8.506 5.538c5.602 2.379 11.306 4.785 17.358 5.432s12.613-.714 16.945-4.988c4.123-4.068 5.62-10.026 6.942-15.665l12.41-52.896c1.314-5.596 2.579-11.712.094-16.894a17.218 17.218 0 00-8.042-7.584 26.666 26.666 0 00-31.018 6.042c-8.697 9.874-8.633 24.358-10.78 37.34a97.032 97.032 0 01-13.835 36.158m93.384-130.624a12.095 12.095 0 01-1.697-4.833 8.133 8.133 0 012.343-6.451 5.472 5.472 0 014.577-1.644c2.148.285 4.013 1.858 5.202 4.297l12.787-15.26 1.533 1.284-15.032 17.94-.55-1.735c-.64-2.01-2.078-4.262-4.202-4.543a3.514 3.514 0 00-2.918 1.093 6.146 6.146 0 00-1.751 4.807c.323 3.037 2.357 5.622 4.782 8.445l-1.518 1.302a32.962 32.962 0 01-3.556-4.702zm6.645-36.63l1.48-1.345 7.243 7.974-1.48 1.345zm22.859 25.168l1.481-1.344 7.242 7.974-1.48 1.344zm31.622 1.115c-14.037-7.517-29.706-15.774-37.448-30.427-3.485-6.595-5.36-14.47-4.136-21.912a24.888 24.888 0 0111.534-17.243c12.225-7.607 28.516-6.674 41.9-3.111a87.772 87.772 0 0136.495 20.285 89.903 89.903 0 0123.668 34.894 78.836 78.836 0 014.628 20.467 114.896 114.896 0 01-1.556 28.409c-3.036 18.36-8.725 36.204-10.85 54.727-1.912 16.675-.981 34.429 7.35 49.39 6.465 11.61 17.382 20.22 29.671 24.993a60.09 60.09 0 0038.836 1.86 53.018 53.018 0 008.985-3.68c1.713-.892.198-3.481-1.514-2.591-11.833 6.15-25.821 7.066-38.632 3.739-12.827-3.331-24.784-10.922-32.338-21.935-9.592-13.982-11.185-31.663-9.73-48.122 1.66-18.742 7.43-36.762 10.71-55.226a127.194 127.194 0 002.253-28.835 81.821 81.821 0 00-4.051-21.51 93.723 93.723 0 00-59.087-58.57c-13.511-4.352-29.46-5.957-42.889-.47-6.718 2.747-12.643 7.458-15.846 14.088-3.317 6.865-3.555 14.78-1.744 22.102 4.041 16.338 17.519 27.156 31.418 35.271 3.571 2.085 7.214 4.045 10.859 5.997 1.701.911 3.218-1.678 1.514-2.59z"/><path fill="#3f3d56" d="M175 350C78.505 350 0 271.495 0 175a173.47 173.47 0 0116.102-73.42 175.059 175.059 0 01317.796 0A173.464 173.464 0 01350 175c0 96.495-78.505 175-175 175zm0-348A173.629 173.629 0 0017.917 102.42 171.483 171.483 0 002 175c0 95.393 77.607 173 173 173s173-77.607 173-173a171.479 171.479 0 00-15.917-72.58A173.629 173.629 0 00175 2z"/><path fill="#fff" d="M239.283 83.223h-129.44a6.047 6.047 0 110-12.094h129.44a6.047 6.047 0 110 12.094zm-41.5-26h-46.44a6.047 6.047 0 110-12.094h46.44a6.047 6.047 0 110 12.094z"/><path fill="#ff6584" d="M109.972 162.392l-3.906-1.279c-13.94-4.7-23.1-7.702-26.362-15.055a11.444 11.444 0 015.555-15.202q.15-.07.303-.136a12.449 12.449 0 0110.459.224 12.448 12.448 0 016.853-7.904 11.444 11.444 0 0115.167 5.646q.07.151.134.304c3.262 7.354-.659 16.158-6.53 29.648z"/><path fill="#3f3d56" d="M230.235 277.45H117.898a13.145 13.145 0 01-13.13-13.131v-71.487a13.145 13.145 0 0113.13-13.13h112.337a13.145 13.145 0 0113.13 13.13v71.487a13.145 13.145 0 01-13.13 13.13zm-112.337-94.83a10.224 10.224 0 00-10.213 10.212v71.487a10.224 10.224 0 0010.213 10.212h112.337a10.224 10.224 0 0010.212-10.212v-71.487a10.224 10.224 0 00-10.212-10.213z"/><path fill="#3f3d56" d="M173.464 227.93a14.648 14.648 0 01-8.397-2.627l-56.368-39.41 1.672-2.391 56.368 39.41a11.801 11.801 0 0013.295.104l58.028-39.231 1.634 2.418-58.028 39.23a14.647 14.647 0 01-8.204 2.496z"/><circle cx="173.337" cy="227.846" r="17.507" fill="#3f3d56"/><path fill="#e6e6e6" d="M675.226 606.151H232.932a1.19 1.19 0 110-2.381h442.294a1.19 1.19 0 110 2.381z"/></svg>