<svg data-name="Layer 1" viewBox="0 0 794.235 458.828"><path fill="#e6e6e6" d="M366.763 435.233a6.786 6.786 0 01-3.347-.886L169.92 324.95a6.828 6.828 0 01-2.58-9.293L319.743 46.092a6.818 6.818 0 019.292-2.58l193.496 109.396a6.828 6.828 0 012.58 9.292L372.709 431.766a6.776 6.776 0 01-4.111 3.216 6.856 6.856 0 01-1.834.25z"/><path fill="#fff" d="M313.568 58.03l.777-1.376 204.499 115.615-.778 1.375zm-13.997 24.754l.778-1.375 204.498 115.615-.777 1.375zm-13.996 24.757l.777-1.375L490.851 221.78l-.778 1.375zm-13.996 24.756l.777-1.375 204.499 115.615-.778 1.375zm-13.996 24.756l.777-1.375 204.5 115.615-.778 1.375zm-13.996 24.757l.777-1.376 204.499 115.615-.778 1.375zm-13.997 24.755l.778-1.375 204.499 115.615-.778 1.375zm-13.995 24.756l.777-1.375L420.871 345.56l-.778 1.375zm-13.997 24.756l.777-1.375 204.499 115.615-.778 1.375zm-13.996 24.756l.777-1.375 204.499 115.615-.778 1.375zm-13.996 24.757l.777-1.376 204.499 115.615-.778 1.375z"/><path fill="#f2f2f2" d="M348.763 394.233a6.786 6.786 0 01-3.347-.886L151.92 283.95a6.828 6.828 0 01-2.58-9.293L301.743 5.092a6.818 6.818 0 019.292-2.58l193.496 109.396a6.828 6.828 0 012.58 9.292L354.709 390.766a6.776 6.776 0 01-4.111 3.216 6.856 6.856 0 01-1.834.25z"/><path fill="#fff" d="M295.567 17.028l.778-1.375 204.498 115.615-.777 1.375zm-13.996 24.756l.778-1.375 204.498 115.615-.777 1.375zm-13.996 24.757l.777-1.375L472.851 180.78l-.778 1.375zm-13.996 24.756l.777-1.375 204.499 115.615-.778 1.375zm-13.996 24.756l.777-1.375 204.5 115.615-.778 1.375zm-13.996 24.757l.777-1.376 204.499 115.615-.778 1.375zm-13.997 24.755l.778-1.375 204.499 115.615-.778 1.375zm-13.995 24.756l.777-1.375L402.871 304.56l-.778 1.375zm-13.997 24.756l.777-1.375 204.499 115.615-.778 1.375zm-13.996 24.756l.777-1.375 204.499 115.615-.778 1.375zm-13.996 24.757l.777-1.376 204.499 115.615-.778 1.375z"/><path fill="#3f3d56" d="M329.48 0H20.245v430H329.48a4.188 4.188 0 004.188-4.188V4.188A4.188 4.188 0 00329.48 0zM37.696 418.133a7.679 7.679 0 117.678-7.678 7.679 7.679 0 01-7.678 7.678zm0-39.09a7.679 7.679 0 117.678-7.68 7.679 7.679 0 01-7.678 7.68zm0-39.092a7.679 7.679 0 117.678-7.678 7.679 7.679 0 01-7.678 7.678zm0-39.09a7.679 7.679 0 117.678-7.68 7.679 7.679 0 01-7.678 7.68zm0-39.092a7.679 7.679 0 117.678-7.678 7.679 7.679 0 01-7.678 7.678zm0-39.09A7.679 7.679 0 1145.373 215a7.679 7.679 0 01-7.678 7.679zm0-39.091a7.679 7.679 0 117.678-7.679 7.679 7.679 0 01-7.678 7.679zm0-39.091a7.679 7.679 0 117.678-7.679 7.679 7.679 0 01-7.678 7.679zm0-39.091a7.679 7.679 0 117.678-7.679 7.679 7.679 0 01-7.678 7.679zm0-39.091a7.679 7.679 0 117.678-7.679 7.679 7.679 0 01-7.678 7.679zm0-39.091a7.679 7.679 0 117.678-7.679 7.679 7.679 0 01-7.678 7.679z"/><path fill="#2f2e41" d="M20.244 23.734C18.172 23.734 0 23.636 0 20.244s18.172-3.49 20.244-3.49v1.395c-10.703 0-17.643 1.198-18.76 2.095 1.117.896 8.057 2.094 18.76 2.094 10.678 0 17.611-1.193 18.752-2.088-.543-.384-2.761-1.188-8.71-1.702l.12-1.39c10.081.87 10.081 2.48 10.081 3.086 0 3.392-18.171 3.49-20.243 3.49zm0 38.393C18.172 62.127 0 62.029 0 58.637s18.172-3.49 20.244-3.49v1.395c-10.703 0-17.643 1.198-18.76 2.094 1.117.896 8.057 2.095 18.76 2.095 10.678 0 17.611-1.193 18.752-2.088-.543-.384-2.761-1.188-8.71-1.702l.12-1.39c10.081.87 10.081 2.48 10.081 3.085 0 3.393-18.171 3.49-20.243 3.49zm0 39.09c-2.072 0-20.244-.097-20.244-3.49s18.172-3.49 20.244-3.49v1.396c-10.703 0-17.643 1.198-18.76 2.094 1.117.896 8.057 2.094 18.76 2.094 10.678 0 17.611-1.193 18.752-2.088-.543-.383-2.761-1.187-8.71-1.701l.12-1.39c10.081.87 10.081 2.48 10.081 3.085 0 3.393-18.171 3.49-20.243 3.49zm0 39.091c-2.072 0-20.244-.097-20.244-3.49s18.172-3.49 20.244-3.49v1.396c-10.703 0-17.643 1.198-18.76 2.094 1.117.896 8.057 2.094 18.76 2.094 10.678 0 17.611-1.193 18.752-2.088-.543-.383-2.761-1.187-8.71-1.701l.12-1.39c10.081.87 10.081 2.48 10.081 3.085 0 3.393-18.171 3.49-20.243 3.49zm0 39.091C18.172 179.4 0 179.302 0 175.91s18.172-3.49 20.244-3.49v1.396c-10.703 0-17.643 1.198-18.76 2.094 1.117.896 8.057 2.094 18.76 2.094 10.678 0 17.611-1.193 18.752-2.088-.543-.383-2.761-1.187-8.71-1.701l.12-1.39c10.081.87 10.081 2.48 10.081 3.085 0 3.393-18.171 3.49-20.243 3.49zm0 39.091C18.172 218.49 0 218.392 0 215s18.172-3.49 20.244-3.49v1.396c-10.703 0-17.643 1.198-18.76 2.094 1.117.896 8.057 2.094 18.76 2.094 10.678 0 17.611-1.193 18.752-2.088-.543-.383-2.761-1.187-8.71-1.701l.12-1.391c10.081.871 10.081 2.48 10.081 3.086 0 3.392-18.171 3.49-20.243 3.49zm0 39.091c-2.072 0-20.244-.098-20.244-3.49s18.172-3.49 20.244-3.49v1.396c-10.703 0-17.643 1.198-18.76 2.094 1.117.896 8.057 2.094 18.76 2.094 10.678 0 17.611-1.193 18.752-2.088-.543-.383-2.761-1.187-8.71-1.701l.12-1.391c10.081.871 10.081 2.48 10.081 3.086 0 3.392-18.171 3.49-20.243 3.49zm0 39.091c-2.072 0-20.244-.098-20.244-3.49s18.172-3.49 20.244-3.49v1.396c-10.703 0-17.643 1.198-18.76 2.094 1.117.896 8.057 2.094 18.76 2.094 10.678 0 17.611-1.193 18.752-2.088-.543-.383-2.761-1.187-8.71-1.702l.12-1.39c10.081.871 10.081 2.48 10.081 3.086 0 3.392-18.171 3.49-20.243 3.49zm0 39.091c-2.072 0-20.244-.098-20.244-3.49s18.172-3.49 20.244-3.49v1.396c-10.703 0-17.643 1.198-18.76 2.094 1.117.896 8.057 2.094 18.76 2.094 10.678 0 17.611-1.193 18.752-2.088-.543-.384-2.761-1.187-8.71-1.702l.12-1.39c10.081.87 10.081 2.48 10.081 3.086 0 3.392-18.171 3.49-20.243 3.49zm0 39.09c-2.072 0-20.244-.097-20.244-3.49s18.172-3.49 20.244-3.49v1.396c-10.703 0-17.643 1.199-18.76 2.095 1.117.896 8.057 2.094 18.76 2.094 10.678 0 17.611-1.193 18.752-2.088-.543-.384-2.761-1.187-8.71-1.702l.12-1.39c10.081.87 10.081 2.48 10.081 3.086 0 3.392-18.171 3.49-20.243 3.49zm0 39.092c-2.072 0-20.244-.098-20.244-3.49s18.172-3.49 20.244-3.49v1.395c-10.703 0-17.643 1.198-18.76 2.095 1.117.896 8.057 2.094 18.76 2.094 10.678 0 17.611-1.193 18.752-2.088-.543-.384-2.761-1.187-8.71-1.702l.12-1.39c10.081.87 10.081 2.48 10.081 3.086 0 3.392-18.171 3.49-20.243 3.49z"/><path fill="#fff" d="M266.307 164.391H112.735a4.543 4.543 0 01-4.537-4.537V99.82a4.543 4.543 0 014.537-4.537h153.572a4.542 4.542 0 014.537 4.537v60.033a4.542 4.542 0 01-4.537 4.537z"/><path fill="#6c63ff" d="M209.067 115.877h-39.091a3.49 3.49 0 110-6.98h39.09a3.49 3.49 0 010 6.98zm21.64 17.45h-82.371a3.49 3.49 0 010-6.98h82.37a3.49 3.49 0 010 6.98zm0 17.452h-82.371a3.49 3.49 0 010-6.98h82.37a3.49 3.49 0 010 6.98z"/><path fill="#2f2e41" d="M629.629 144.93a11.577 11.577 0 009.041-18.81c-5.703-7.127-18.186-6.035-23.18-13.674-4.233-6.474-.324-15.364 5.312-20.66 11.034-10.369 28.698-12.917 42.212-6.09s21.945 22.558 20.146 37.592c-.685 5.727-2.273 12.676 2.17 16.352 3.945 3.262 9.775 1.41 14.73.126a52.542 52.542 0 0143.157 8.035c10.524 7.542 18.195 19.724 18.2 32.672s-8.814 25.995-21.433 28.894c-12.37 2.842-25.12-4.067-33.87-13.26s-14.757-20.629-22.732-30.502-19.009-18.57-31.699-18.8c-7.352-.132-15.402 2.456-21.642-1.435"/><circle cx="635.084" cy="125.524" r="24.561" fill="#ffb8b8"/><path fill="#ffb8b8" d="M582.838 288.458a10.056 10.056 0 018.38-12.943l7.503-34.938 13.01 13.25-9.118 31.146a10.11 10.11 0 01-19.775 3.485zm126.156 151.751l-12.049 2.26L660.62 323.16l25.784-3.337 22.59 120.386z"/><path fill="#2f2e41" d="M687.69 440.644l23.238-4.36 2.745 14.631-37.87 7.105a14.887 14.887 0 0111.887-17.376z"/><path fill="#ffb8b8" d="M630.033 446.634l-12.259-.001-1.833-110.487 26.094.001-12.002 110.487z"/><path fill="#2f2e41" d="M609.016 443.13h23.644v14.887h-38.53a14.887 14.887 0 0114.886-14.887z"/><path fill="#6c63ff" d="M610.3 351.183l1.125-53.997c-.086-.76-8.942-82.567-12.243-103.47-3.353-21.242 13.977-32.133 14.152-32.24a64.958 64.958 0 012.177-.846 46.46 46.46 0 0148.54 9.864 48.01 48.01 0 0113.543 48.688l-6.113 21.164c31.318 56.62 37.745 80.985 37.807 81.224l.018.074-.004.076c-1.123 22.455-94.483 29.151-98.457 29.426z"/><path fill="#6c63ff" d="M603.017 183.616l-21.158 83.515 37.861 4.454-16.703-87.969z"/><path fill="#ffb8b8" d="M654.163 252.647a10.056 10.056 0 0113.38-7.663l22.68-27.615 5.492 17.739-22.38 23.504a10.11 10.11 0 01-19.172-5.965z"/><path fill="#6c63ff" d="M683.783 252.715l-19.742-12.771 18.79-19.895-50.946-15.505 13.108-38.184 16.124 2.303 40.987 30.36a24.833 24.833 0 015.33 34.368l-.089.095z"/><path fill="#2f2e41" d="M612.968 111.564a80.48 80.48 0 0034.818 11.473l-3.67-4.398a26.97 26.97 0 008.33 1.655c2.845-.045 5.824-1.14 7.438-3.481a8.487 8.487 0 00.568-7.84 16.074 16.074 0 00-5.057-6.323 30.106 30.106 0 00-28.02-5.008 17.993 17.993 0 00-8.37 5.369c-2.115 2.609-6.729 4.956-5.646 8.135z"/><path fill="#3f3d56" d="M793.045 458.828H488.75a1.19 1.19 0 110-2.38h304.294a1.19 1.19 0 010 2.38z"/></svg>