<svg viewBox="0 0 74.5 101.156"><path fill="#a00" d="M.57 34.944v31.25h73.36v-31.25H.57z"/><path style="color:#000" fill="none" stroke="#000" stroke-miterlimit="0" stroke-width="2" d="M73.505 15.348L59.151.995v14.354h14.354zM.995 1.003v99.15h72.51V15.357L59.151 1.003H.995z"/><path fill="#fff" d="M18.624 56.47v-3.744H14.88v3.744h3.744m15.897-8.304c0-3.192-2.736-3.48-5.088-3.48h-5.568v2.088h1.344v7.608h-1.344v2.088h5.352v-2.088h-1.344v-2.136c2.616-.024 6.648-.312 6.648-4.08m-2.784.048c0 1.536-1.416 1.944-3.192 1.944h-.672v-3.384h1.344c1.512 0 2.52.216 2.52 1.44m15.466 2.136c0-3.624-1.872-5.664-5.856-5.664h-5.064v2.088h1.344v7.608h-1.344v2.088h4.608c4.296 0 6.312-2.232 6.312-6.12m-2.592.264c0 2.712-1.128 3.768-4.056 3.768h-.264v-7.608h.744c2.784 0 3.576 1.296 3.576 3.84m15.009-2.448v-3.384l-10.08-.048v2.088h1.416v7.56H49.54v2.088h5.784v-2.088h-1.656v-2.976h1.728v.864h2.232v-3.816h-2.232v.864h-1.728v-2.496h3.72v1.344h2.232"/></svg>